<mxfile host="app.diagrams.net" agent="Mozilla/5.0 (Windows NT 10.0; Win64; x64; rv:137.0) Gecko/20100101 Firefox/137.0" version="26.2.12">
  <diagram name="Page-1" id="WfTVVFJaoz6CVrunKCxH">
    <mxGraphModel dx="1713" dy="2126" grid="1" gridSize="10" guides="1" tooltips="1" connect="1" arrows="1" fold="1" page="1" pageScale="1" pageWidth="827" pageHeight="1169" math="0" shadow="0">
      <root>
        <mxCell id="0" />
        <mxCell id="1" parent="0" />
        <mxCell id="lbBo_nXBx8QTh_3jPK9N-1" value="" style="shape=folder;fontStyle=1;spacingTop=10;tabWidth=40;tabHeight=14;tabPosition=left;html=1;whiteSpace=wrap;" parent="1" vertex="1">
          <mxGeometry x="80" y="350" width="480" height="320" as="geometry" />
        </mxCell>
        <mxCell id="lbBo_nXBx8QTh_3jPK9N-2" value="" style="shape=folder;fontStyle=1;spacingTop=10;tabWidth=40;tabHeight=14;tabPosition=left;html=1;whiteSpace=wrap;" parent="1" vertex="1">
          <mxGeometry x="80" y="-60" width="420" height="250" as="geometry" />
        </mxCell>
        <mxCell id="lbBo_nXBx8QTh_3jPK9N-3" value="" style="shape=folder;fontStyle=1;spacingTop=10;tabWidth=40;tabHeight=14;tabPosition=left;html=1;whiteSpace=wrap;" parent="1" vertex="1">
          <mxGeometry x="80" y="730" width="300" height="190" as="geometry" />
        </mxCell>
        <mxCell id="lbBo_nXBx8QTh_3jPK9N-4" value="" style="shape=folder;fontStyle=1;spacingTop=10;tabWidth=40;tabHeight=14;tabPosition=left;html=1;whiteSpace=wrap;" parent="1" vertex="1">
          <mxGeometry x="760" y="370" width="360" height="260" as="geometry" />
        </mxCell>
        <mxCell id="lbBo_nXBx8QTh_3jPK9N-6" value="" style="endArrow=classic;html=1;rounded=0;exitX=0.5;exitY=1;exitDx=0;exitDy=0;exitPerimeter=0;entryX=0.429;entryY=0.059;entryDx=0;entryDy=0;entryPerimeter=0;" parent="1" source="lbBo_nXBx8QTh_3jPK9N-2" target="lbBo_nXBx8QTh_3jPK9N-1" edge="1">
          <mxGeometry width="50" height="50" relative="1" as="geometry">
            <mxPoint x="390" y="440" as="sourcePoint" />
            <mxPoint x="440" y="390" as="targetPoint" />
          </mxGeometry>
        </mxCell>
        <mxCell id="lbBo_nXBx8QTh_3jPK9N-7" value="" style="endArrow=classic;html=1;rounded=0;exitX=0.333;exitY=1.002;exitDx=0;exitDy=0;exitPerimeter=0;entryX=0.532;entryY=0.06;entryDx=0;entryDy=0;entryPerimeter=0;" parent="1" source="lbBo_nXBx8QTh_3jPK9N-1" target="lbBo_nXBx8QTh_3jPK9N-3" edge="1">
          <mxGeometry width="50" height="50" relative="1" as="geometry">
            <mxPoint x="390" y="440" as="sourcePoint" />
            <mxPoint x="280" y="750" as="targetPoint" />
          </mxGeometry>
        </mxCell>
        <mxCell id="lbBo_nXBx8QTh_3jPK9N-9" value="" style="endArrow=classic;html=1;rounded=0;exitX=0.006;exitY=0.867;exitDx=0;exitDy=0;exitPerimeter=0;entryX=0;entryY=0;entryDx=300;entryDy=58;entryPerimeter=0;" parent="1" source="lbBo_nXBx8QTh_3jPK9N-4" target="lbBo_nXBx8QTh_3jPK9N-3" edge="1">
          <mxGeometry width="50" height="50" relative="1" as="geometry">
            <mxPoint x="420" y="430" as="sourcePoint" />
            <mxPoint x="470" y="380" as="targetPoint" />
          </mxGeometry>
        </mxCell>
        <mxCell id="lbBo_nXBx8QTh_3jPK9N-10" value="" style="endArrow=classic;html=1;rounded=0;" parent="1" source="lbBo_nXBx8QTh_3jPK9N-1" edge="1">
          <mxGeometry width="50" height="50" relative="1" as="geometry">
            <mxPoint x="320" y="390" as="sourcePoint" />
            <mxPoint x="760" y="494" as="targetPoint" />
          </mxGeometry>
        </mxCell>
        <mxCell id="lbBo_nXBx8QTh_3jPK9N-11" value="" style="endArrow=classic;html=1;rounded=0;entryX=0;entryY=0;entryDx=0;entryDy=14;entryPerimeter=0;exitX=1.007;exitY=0.424;exitDx=0;exitDy=0;exitPerimeter=0;" parent="1" source="lbBo_nXBx8QTh_3jPK9N-2" target="lbBo_nXBx8QTh_3jPK9N-4" edge="1">
          <mxGeometry width="50" height="50" relative="1" as="geometry">
            <mxPoint x="630" y="130" as="sourcePoint" />
            <mxPoint x="370" y="100" as="targetPoint" />
          </mxGeometry>
        </mxCell>
        <mxCell id="lbBo_nXBx8QTh_3jPK9N-17" value="AlertController" style="swimlane;fontStyle=1;align=center;verticalAlign=top;childLayout=stackLayout;horizontal=1;startSize=26;horizontalStack=0;resizeParent=1;resizeParentMax=0;resizeLast=0;collapsible=1;marginBottom=0;whiteSpace=wrap;html=1;" parent="1" vertex="1">
          <mxGeometry x="315" y="60" width="160" height="34" as="geometry" />
        </mxCell>
        <mxCell id="lbBo_nXBx8QTh_3jPK9N-18" value="" style="line;strokeWidth=1;fillColor=none;align=left;verticalAlign=middle;spacingTop=-1;spacingLeft=3;spacingRight=3;rotatable=0;labelPosition=right;points=[];portConstraint=eastwest;strokeColor=inherit;" parent="lbBo_nXBx8QTh_3jPK9N-17" vertex="1">
          <mxGeometry y="26" width="160" height="8" as="geometry" />
        </mxCell>
        <mxCell id="lbBo_nXBx8QTh_3jPK9N-19" value="&lt;div&gt;FileLogController&lt;/div&gt;" style="swimlane;fontStyle=1;align=center;verticalAlign=top;childLayout=stackLayout;horizontal=1;startSize=26;horizontalStack=0;resizeParent=1;resizeParentMax=0;resizeLast=0;collapsible=1;marginBottom=0;whiteSpace=wrap;html=1;" parent="1" vertex="1">
          <mxGeometry x="105" y="60" width="160" height="34" as="geometry" />
        </mxCell>
        <mxCell id="lbBo_nXBx8QTh_3jPK9N-20" value="" style="line;strokeWidth=1;fillColor=none;align=left;verticalAlign=middle;spacingTop=-1;spacingLeft=3;spacingRight=3;rotatable=0;labelPosition=right;points=[];portConstraint=eastwest;strokeColor=inherit;" parent="lbBo_nXBx8QTh_3jPK9N-19" vertex="1">
          <mxGeometry y="26" width="160" height="8" as="geometry" />
        </mxCell>
        <mxCell id="lbBo_nXBx8QTh_3jPK9N-22" value="Use" style="endArrow=open;endSize=12;dashed=1;html=1;rounded=0;exitX=1;exitY=0.5;exitDx=0;exitDy=0;entryX=0;entryY=0.5;entryDx=0;entryDy=0;" parent="1" source="lbBo_nXBx8QTh_3jPK9N-19" target="lbBo_nXBx8QTh_3jPK9N-17" edge="1">
          <mxGeometry width="160" relative="1" as="geometry">
            <mxPoint x="295" y="140" as="sourcePoint" />
            <mxPoint x="455" y="140" as="targetPoint" />
          </mxGeometry>
        </mxCell>
        <mxCell id="lbBo_nXBx8QTh_3jPK9N-24" value="TimeStrategy" style="swimlane;fontStyle=1;align=center;verticalAlign=top;childLayout=stackLayout;horizontal=1;startSize=26;horizontalStack=0;resizeParent=1;resizeParentMax=0;resizeLast=0;collapsible=1;marginBottom=0;whiteSpace=wrap;html=1;" parent="1" vertex="1">
          <mxGeometry x="210" y="610" width="160" height="34" as="geometry" />
        </mxCell>
        <mxCell id="lbBo_nXBx8QTh_3jPK9N-25" value="" style="line;strokeWidth=1;fillColor=none;align=left;verticalAlign=middle;spacingTop=-1;spacingLeft=3;spacingRight=3;rotatable=0;labelPosition=right;points=[];portConstraint=eastwest;strokeColor=inherit;" parent="lbBo_nXBx8QTh_3jPK9N-24" vertex="1">
          <mxGeometry y="26" width="160" height="8" as="geometry" />
        </mxCell>
        <mxCell id="lbBo_nXBx8QTh_3jPK9N-26" value="QueueStrategy" style="swimlane;fontStyle=1;align=center;verticalAlign=top;childLayout=stackLayout;horizontal=1;startSize=26;horizontalStack=0;resizeParent=1;resizeParentMax=0;resizeLast=0;collapsible=1;marginBottom=0;whiteSpace=wrap;html=1;" parent="1" vertex="1">
          <mxGeometry x="390" y="610" width="160" height="34" as="geometry" />
        </mxCell>
        <mxCell id="lbBo_nXBx8QTh_3jPK9N-27" value="" style="line;strokeWidth=1;fillColor=none;align=left;verticalAlign=middle;spacingTop=-1;spacingLeft=3;spacingRight=3;rotatable=0;labelPosition=right;points=[];portConstraint=eastwest;strokeColor=inherit;" parent="lbBo_nXBx8QTh_3jPK9N-26" vertex="1">
          <mxGeometry y="26" width="160" height="8" as="geometry" />
        </mxCell>
        <mxCell id="lbBo_nXBx8QTh_3jPK9N-28" value="SimulationManager" style="swimlane;fontStyle=1;align=center;verticalAlign=top;childLayout=stackLayout;horizontal=1;startSize=26;horizontalStack=0;resizeParent=1;resizeParentMax=0;resizeLast=0;collapsible=1;marginBottom=0;whiteSpace=wrap;html=1;" parent="1" vertex="1">
          <mxGeometry x="90" y="470" width="160" height="34" as="geometry" />
        </mxCell>
        <mxCell id="lbBo_nXBx8QTh_3jPK9N-29" value="" style="line;strokeWidth=1;fillColor=none;align=left;verticalAlign=middle;spacingTop=-1;spacingLeft=3;spacingRight=3;rotatable=0;labelPosition=right;points=[];portConstraint=eastwest;strokeColor=inherit;" parent="lbBo_nXBx8QTh_3jPK9N-28" vertex="1">
          <mxGeometry y="26" width="160" height="8" as="geometry" />
        </mxCell>
        <mxCell id="lbBo_nXBx8QTh_3jPK9N-30" value="&lt;div&gt;Scheduler&lt;/div&gt;" style="swimlane;fontStyle=1;align=center;verticalAlign=top;childLayout=stackLayout;horizontal=1;startSize=26;horizontalStack=0;resizeParent=1;resizeParentMax=0;resizeLast=0;collapsible=1;marginBottom=0;whiteSpace=wrap;html=1;" parent="1" vertex="1">
          <mxGeometry x="90" y="540" width="160" height="34" as="geometry" />
        </mxCell>
        <mxCell id="lbBo_nXBx8QTh_3jPK9N-31" value="" style="line;strokeWidth=1;fillColor=none;align=left;verticalAlign=middle;spacingTop=-1;spacingLeft=3;spacingRight=3;rotatable=0;labelPosition=right;points=[];portConstraint=eastwest;strokeColor=inherit;" parent="lbBo_nXBx8QTh_3jPK9N-30" vertex="1">
          <mxGeometry y="26" width="160" height="8" as="geometry" />
        </mxCell>
        <mxCell id="lbBo_nXBx8QTh_3jPK9N-32" value="SelectionPolicy" style="swimlane;fontStyle=1;align=center;verticalAlign=top;childLayout=stackLayout;horizontal=1;startSize=26;horizontalStack=0;resizeParent=1;resizeParentMax=0;resizeLast=0;collapsible=1;marginBottom=0;whiteSpace=wrap;html=1;" parent="1" vertex="1">
          <mxGeometry x="330" y="460" width="160" height="34" as="geometry" />
        </mxCell>
        <mxCell id="lbBo_nXBx8QTh_3jPK9N-33" value="" style="line;strokeWidth=1;fillColor=none;align=left;verticalAlign=middle;spacingTop=-1;spacingLeft=3;spacingRight=3;rotatable=0;labelPosition=right;points=[];portConstraint=eastwest;strokeColor=inherit;" parent="lbBo_nXBx8QTh_3jPK9N-32" vertex="1">
          <mxGeometry y="26" width="160" height="8" as="geometry" />
        </mxCell>
        <mxCell id="lbBo_nXBx8QTh_3jPK9N-37" value="«interface»&lt;br&gt;&lt;div&gt;&lt;b&gt;Strategy&lt;/b&gt;&lt;/div&gt;" style="html=1;whiteSpace=wrap;" parent="1" vertex="1">
          <mxGeometry x="330" y="524" width="110" height="50" as="geometry" />
        </mxCell>
        <mxCell id="lbBo_nXBx8QTh_3jPK9N-38" value="" style="endArrow=block;dashed=1;endFill=0;endSize=12;html=1;rounded=0;exitX=0.5;exitY=0;exitDx=0;exitDy=0;entryX=0.5;entryY=1;entryDx=0;entryDy=0;" parent="1" source="lbBo_nXBx8QTh_3jPK9N-24" target="lbBo_nXBx8QTh_3jPK9N-37" edge="1">
          <mxGeometry width="160" relative="1" as="geometry">
            <mxPoint x="450" y="410" as="sourcePoint" />
            <mxPoint x="610" y="410" as="targetPoint" />
          </mxGeometry>
        </mxCell>
        <mxCell id="lbBo_nXBx8QTh_3jPK9N-39" value="" style="endArrow=block;dashed=1;endFill=0;endSize=12;html=1;rounded=0;exitX=0.5;exitY=0;exitDx=0;exitDy=0;entryX=0.5;entryY=1;entryDx=0;entryDy=0;" parent="1" source="lbBo_nXBx8QTh_3jPK9N-26" target="lbBo_nXBx8QTh_3jPK9N-37" edge="1">
          <mxGeometry width="160" relative="1" as="geometry">
            <mxPoint x="450" y="410" as="sourcePoint" />
            <mxPoint x="610" y="410" as="targetPoint" />
          </mxGeometry>
        </mxCell>
        <mxCell id="lbBo_nXBx8QTh_3jPK9N-40" value="Use" style="endArrow=open;endSize=12;dashed=1;html=1;rounded=0;exitX=1;exitY=0.5;exitDx=0;exitDy=0;entryX=0;entryY=1;entryDx=0;entryDy=0;" parent="1" source="lbBo_nXBx8QTh_3jPK9N-30" target="lbBo_nXBx8QTh_3jPK9N-32" edge="1">
          <mxGeometry x="0.0068" width="160" relative="1" as="geometry">
            <mxPoint x="260" y="560" as="sourcePoint" />
            <mxPoint x="420" y="560" as="targetPoint" />
            <mxPoint as="offset" />
          </mxGeometry>
        </mxCell>
        <mxCell id="lbBo_nXBx8QTh_3jPK9N-43" value="businessLogic" style="text;strokeColor=none;fillColor=none;html=1;fontSize=24;fontStyle=1;verticalAlign=middle;align=center;" parent="1" vertex="1">
          <mxGeometry x="260" y="390" width="100" height="40" as="geometry" />
        </mxCell>
        <mxCell id="lbBo_nXBx8QTh_3jPK9N-44" value="gui" style="text;strokeColor=none;fillColor=none;html=1;fontSize=24;fontStyle=1;verticalAlign=middle;align=center;" parent="1" vertex="1">
          <mxGeometry x="260" y="-30" width="60" height="40" as="geometry" />
        </mxCell>
        <mxCell id="lbBo_nXBx8QTh_3jPK9N-45" value="Constants" style="swimlane;fontStyle=1;align=center;verticalAlign=top;childLayout=stackLayout;horizontal=1;startSize=26;horizontalStack=0;resizeParent=1;resizeParentMax=0;resizeLast=0;collapsible=1;marginBottom=0;whiteSpace=wrap;html=1;" parent="1" vertex="1">
          <mxGeometry x="150" y="854.5" width="160" height="34" as="geometry" />
        </mxCell>
        <mxCell id="lbBo_nXBx8QTh_3jPK9N-46" value="" style="line;strokeWidth=1;fillColor=none;align=left;verticalAlign=middle;spacingTop=-1;spacingLeft=3;spacingRight=3;rotatable=0;labelPosition=right;points=[];portConstraint=eastwest;strokeColor=inherit;" parent="lbBo_nXBx8QTh_3jPK9N-45" vertex="1">
          <mxGeometry y="26" width="160" height="8" as="geometry" />
        </mxCell>
        <mxCell id="lbBo_nXBx8QTh_3jPK9N-51" value="Config" style="text;strokeColor=none;fillColor=none;html=1;fontSize=24;fontStyle=1;verticalAlign=middle;align=center;" parent="1" vertex="1">
          <mxGeometry x="180" y="761.5" width="100" height="40" as="geometry" />
        </mxCell>
        <mxCell id="lbBo_nXBx8QTh_3jPK9N-52" value="Server" style="swimlane;fontStyle=1;align=center;verticalAlign=top;childLayout=stackLayout;horizontal=1;startSize=26;horizontalStack=0;resizeParent=1;resizeParentMax=0;resizeLast=0;collapsible=1;marginBottom=0;whiteSpace=wrap;html=1;" parent="1" vertex="1">
          <mxGeometry x="860" y="482" width="160" height="34" as="geometry" />
        </mxCell>
        <mxCell id="lbBo_nXBx8QTh_3jPK9N-53" value="" style="line;strokeWidth=1;fillColor=none;align=left;verticalAlign=middle;spacingTop=-1;spacingLeft=3;spacingRight=3;rotatable=0;labelPosition=right;points=[];portConstraint=eastwest;strokeColor=inherit;" parent="lbBo_nXBx8QTh_3jPK9N-52" vertex="1">
          <mxGeometry y="26" width="160" height="8" as="geometry" />
        </mxCell>
        <mxCell id="lbBo_nXBx8QTh_3jPK9N-54" value="Task" style="swimlane;fontStyle=1;align=center;verticalAlign=top;childLayout=stackLayout;horizontal=1;startSize=26;horizontalStack=0;resizeParent=1;resizeParentMax=0;resizeLast=0;collapsible=1;marginBottom=0;whiteSpace=wrap;html=1;" parent="1" vertex="1">
          <mxGeometry x="860" y="575" width="160" height="34" as="geometry" />
        </mxCell>
        <mxCell id="lbBo_nXBx8QTh_3jPK9N-55" value="" style="line;strokeWidth=1;fillColor=none;align=left;verticalAlign=middle;spacingTop=-1;spacingLeft=3;spacingRight=3;rotatable=0;labelPosition=right;points=[];portConstraint=eastwest;strokeColor=inherit;" parent="lbBo_nXBx8QTh_3jPK9N-54" vertex="1">
          <mxGeometry y="26" width="160" height="8" as="geometry" />
        </mxCell>
        <mxCell id="lbBo_nXBx8QTh_3jPK9N-61" value="" style="endArrow=diamondThin;endFill=0;endSize=24;html=1;rounded=0;exitX=0.5;exitY=0;exitDx=0;exitDy=0;entryX=0.5;entryY=1;entryDx=0;entryDy=0;" parent="1" source="lbBo_nXBx8QTh_3jPK9N-54" target="lbBo_nXBx8QTh_3jPK9N-52" edge="1">
          <mxGeometry width="160" relative="1" as="geometry">
            <mxPoint x="940" y="541" as="sourcePoint" />
            <mxPoint x="1100" y="541" as="targetPoint" />
          </mxGeometry>
        </mxCell>
        <mxCell id="lbBo_nXBx8QTh_3jPK9N-62" value="dataModel" style="text;strokeColor=none;fillColor=none;html=1;fontSize=24;fontStyle=1;verticalAlign=middle;align=center;" parent="1" vertex="1">
          <mxGeometry x="890" y="411" width="100" height="40" as="geometry" />
        </mxCell>
        <mxCell id="lbBo_nXBx8QTh_3jPK9N-63" value="Use" style="endArrow=open;endSize=12;dashed=1;html=1;rounded=0;entryX=0;entryY=0.5;entryDx=0;entryDy=0;exitX=1;exitY=0.5;exitDx=0;exitDy=0;" parent="1" source="lbBo_nXBx8QTh_3jPK9N-28" target="lbBo_nXBx8QTh_3jPK9N-32" edge="1">
          <mxGeometry width="160" relative="1" as="geometry">
            <mxPoint x="240" y="490" as="sourcePoint" />
            <mxPoint x="400" y="490" as="targetPoint" />
          </mxGeometry>
        </mxCell>
        <mxCell id="lbBo_nXBx8QTh_3jPK9N-65" value="" style="endArrow=diamondThin;endFill=0;endSize=24;html=1;rounded=0;entryX=0.5;entryY=1;entryDx=0;entryDy=0;exitX=0.5;exitY=0;exitDx=0;exitDy=0;" parent="1" source="lbBo_nXBx8QTh_3jPK9N-30" target="lbBo_nXBx8QTh_3jPK9N-28" edge="1">
          <mxGeometry width="160" relative="1" as="geometry">
            <mxPoint x="120" y="610" as="sourcePoint" />
            <mxPoint x="280" y="610" as="targetPoint" />
          </mxGeometry>
        </mxCell>
        <mxCell id="lbBo_nXBx8QTh_3jPK9N-66" value="" style="endArrow=diamondThin;endFill=1;endSize=24;html=1;rounded=0;entryX=1;entryY=0.75;entryDx=0;entryDy=0;exitX=0;exitY=0.5;exitDx=0;exitDy=0;" parent="1" source="lbBo_nXBx8QTh_3jPK9N-37" target="lbBo_nXBx8QTh_3jPK9N-30" edge="1">
          <mxGeometry width="160" relative="1" as="geometry">
            <mxPoint x="250" y="590" as="sourcePoint" />
            <mxPoint x="410" y="590" as="targetPoint" />
          </mxGeometry>
        </mxCell>
      </root>
    </mxGraphModel>
  </diagram>
</mxfile>
